<svg width="688" height="400" viewBox="0 0 688 400" fill="none" xmlns="http://www.w3.org/2000/svg">
<g filter="url(#filter0_dd_2_7783)">
<rect x="58" y="84" width="248" height="24" rx="12" fill="#054A99"/>
</g>
<g filter="url(#filter1_dd_2_7783)">
<rect x="18" y="124" width="248" height="24" rx="12" fill="#054A99"/>
</g>
<g filter="url(#filter2_dd_2_7783)">
<rect x="85" y="164" width="248" height="24" rx="12" fill="#054A99"/>
</g>
<g filter="url(#filter3_dd_2_7783)">
<rect x="367" y="228" width="248" height="24" rx="12" fill="#054A99"/>
</g>
<g filter="url(#filter4_dd_2_7783)">
<rect x="327" y="277" width="248" height="24" rx="12" fill="#054A99"/>
</g>
<rect x="18" y="84" width="24" height="24" rx="12" fill="#054A99"/>
<rect x="591" y="277" width="24" height="24" rx="12" fill="#054A99"/>
<g filter="url(#filter5_dd_2_7783)">
<rect x="159" y="43" width="371" height="313" rx="8" fill="white"/>
</g>
<path d="M249.544 148.678C249.389 148.148 248.834 147.843 248.304 147.998L239.665 150.525C239.135 150.68 238.831 151.235 238.986 151.765C239.141 152.295 239.697 152.599 240.227 152.444L247.905 150.199L250.151 157.877C250.306 158.407 250.861 158.711 251.391 158.556C251.921 158.401 252.225 157.846 252.07 157.316L249.544 148.678ZM235.21 199.755L236.21 199.771C236.496 181.524 241.269 164.403 249.462 149.438L248.584 148.958L247.707 148.478C239.362 163.72 234.501 181.16 234.21 199.739L235.21 199.755ZM243.719 243.894L244.64 243.506C238.989 230.074 235.967 215.278 236.21 199.771L235.21 199.755L234.21 199.739C233.963 215.529 237.04 230.6 242.797 244.282L243.719 243.894Z" fill="url(#paint0_linear_2_7783)"/>
<path d="M442.924 240.624C443.138 241.133 443.723 241.374 444.233 241.161L452.536 237.687C453.045 237.474 453.286 236.888 453.072 236.379C452.859 235.869 452.273 235.629 451.764 235.842L444.384 238.93L441.296 231.549C441.083 231.04 440.497 230.8 439.988 231.013C439.478 231.226 439.238 231.812 439.451 232.321L442.924 240.624ZM451.476 188.267L450.481 188.363C452.231 206.528 449.395 224.075 442.922 239.859L443.847 240.238L444.772 240.617C451.366 224.54 454.253 206.668 452.472 188.171L451.476 188.267ZM438.101 145.352L437.229 145.84C444.342 158.558 448.994 172.925 450.481 188.363L451.476 188.267L452.472 188.171C450.958 172.452 446.22 157.819 438.974 144.864L438.101 145.352Z" fill="url(#paint1_linear_2_7783)"/>
<path d="M307.339 303.402C307.091 302.908 307.29 302.307 307.784 302.06L315.827 298.022C316.321 297.774 316.922 297.974 317.17 298.467C317.417 298.961 317.218 299.562 316.724 299.809L309.575 303.398L313.164 310.548C313.411 311.042 313.212 311.643 312.719 311.891C312.225 312.138 311.624 311.939 311.376 311.445L307.339 303.402ZM363.969 306.364L363.774 305.383C375.67 303.017 386.72 298.789 396.683 293.065L397.182 293.932L397.68 294.799C387.531 300.63 376.276 304.935 364.164 307.345L363.969 306.364ZM308.232 302.953L308.547 302.004C325.782 307.719 344.689 309.179 363.774 305.383L363.969 306.364L364.164 307.345C344.731 311.21 325.473 309.723 307.918 303.903L308.232 302.953Z" fill="url(#paint2_linear_2_7783)"/>
<path d="M391.759 102.393C392.275 102.198 392.536 101.621 392.34 101.104L389.157 92.6859C388.962 92.1693 388.384 91.9089 387.868 92.1043C387.351 92.2996 387.091 92.8767 387.286 93.3933L390.116 100.876L382.633 103.706C382.116 103.901 381.856 104.478 382.051 104.995C382.247 105.511 382.824 105.772 383.34 105.577L391.759 102.393ZM357.138 92.3228L357.04 93.318C369.11 94.5136 380.52 97.6434 390.994 102.369L391.405 101.458L391.816 100.546C381.147 95.7322 369.526 92.545 357.237 91.3277L357.138 92.3228ZM302 101.15L302.406 102.064C319.001 94.6965 337.676 91.3999 357.04 93.318L357.138 92.3228L357.237 91.3277C337.52 89.3747 318.498 92.7317 301.594 100.236L302 101.15Z" fill="url(#paint3_linear_2_7783)"/>
<path d="M253.628 134.621L260.57 139.519L259.65 140.823L252.708 135.925L253.628 134.621ZM264.353 134.615L263.872 134.237C263.798 135.049 263.661 135.689 263.275 136.179C262.407 137.283 260.628 137.486 259.1 136.284C257.318 134.882 257.428 132.937 258.237 131.909C258.526 131.542 258.988 131.187 259.482 130.889L257.417 129.264L258.359 128.066L265.244 133.483L264.353 134.615ZM260.044 135.026C261.044 135.813 262.035 135.601 262.495 135.016C262.725 134.724 262.86 134.28 263.019 133.672L260.463 131.661C260.032 131.917 259.665 132.209 259.435 132.501C258.953 133.114 258.988 134.195 260.044 135.026ZM269.474 127.718C269.312 128.704 269.021 129.492 268.402 130.178C267.22 131.487 265.441 131.757 263.873 130.342L263.704 130.189C262.234 128.862 262.238 126.942 263.307 125.757C264.505 124.43 266.154 124.447 267.526 125.685L268.096 126.2L265.161 129.451C266.082 130.169 266.886 129.941 267.561 129.193C267.995 128.711 268.261 127.933 268.336 127.403L269.474 127.718ZM264.258 126.583C263.776 127.118 263.647 127.923 264.333 128.704L266.287 126.539C265.565 125.888 264.789 125.995 264.258 126.583ZM271.242 121.351C270.692 120.781 270.165 120.823 269.777 121.198C269.466 121.498 269.253 122.021 269.064 122.671L272.207 125.925L271.111 126.984L266.692 122.409L267.762 121.375L268.254 121.885C268.457 120.955 268.697 120.305 269.172 119.847C269.975 119.071 271.063 118.971 272.097 120.042L275.09 123.14L273.994 124.199L271.242 121.351ZM278.345 118.563L279.196 119.556L278.048 120.54C277.091 121.36 276.305 121.291 275.477 120.325L273.384 117.883L272.683 118.484L271.832 117.491L272.533 116.89L271.581 115.778L272.449 114.449L273.691 115.898L275.085 114.703L275.936 115.697L274.542 116.891L276.377 119.033C276.869 119.607 277.124 119.609 277.689 119.125L278.345 118.563ZM276.381 112.379C275.901 112.759 275.383 112.724 275.064 112.319C274.736 111.904 274.839 111.395 275.319 111.016C275.799 110.636 276.311 110.645 276.646 111.069C276.965 111.474 276.861 112 276.381 112.379ZM277.601 112.685L281.543 117.676L280.347 118.62L276.405 113.629L277.601 112.685ZM280.749 110.1L280.869 110.266L282.347 109.198L283.12 110.268L281.69 111.301L284.641 115.386L283.396 116.286L280.445 112.2L279.657 112.769L278.884 111.699L279.672 111.13L279.525 110.926C278.696 109.778 278.753 108.833 280.076 107.877L280.981 107.224L281.705 108.226L280.975 108.753C280.382 109.182 280.328 109.517 280.749 110.1ZM290.11 112.427C290.364 113.647 290.215 114.17 289.164 114.843L288.265 115.42L287.566 114.329L288.334 113.837C288.849 113.506 288.91 113.268 288.704 112.502L288.589 112.034L288.195 112.286L283.123 108.668L284.557 107.748L288.182 110.598L288.333 110.501L287.174 106.07L288.558 105.183L290.11 112.427Z" fill="#0664D0"/>
<path d="M402.621 113.13L407.511 106.182L412.251 109.519L411.422 110.696L407.987 108.279L406.827 109.927L409.722 111.965L408.893 113.142L405.998 111.105L404.755 112.871L408.238 115.323L407.409 116.501L402.621 113.13ZM414.366 116.99C414.866 116.376 414.762 115.857 414.343 115.516C414.008 115.244 413.464 115.094 412.796 114.984L409.939 118.492L408.758 117.529L412.774 112.598L413.928 113.537L413.48 114.086C414.428 114.177 415.101 114.338 415.613 114.755C416.478 115.46 416.707 116.528 415.767 117.682L413.047 121.023L411.865 120.06L414.366 116.99ZM415.328 120.514C415.68 120.136 416.073 119.961 416.53 119.945C417.014 119.92 417.664 120.067 418.628 120.933L419.583 121.774L419.649 121.704C420.295 121.01 420.198 120.411 419.513 119.772C419.118 119.404 418.386 119.116 417.748 119.062L418.012 117.898C418.887 117.909 419.809 118.293 420.52 118.956C421.705 120.061 421.974 121.427 420.583 122.919L418.063 125.622L416.983 124.616L417.466 124.098C416.604 123.984 415.872 123.695 415.372 123.229C414.644 122.55 414.526 121.374 415.328 120.514ZM416.449 121.493C416.138 121.827 416.163 122.293 416.523 122.628C416.865 122.947 417.476 123.189 418.16 123.301L418.863 122.546L418.022 121.812C417.497 121.354 417.145 121.239 416.941 121.247C416.721 121.254 416.547 121.388 416.449 121.493ZM425.7 128.981C424.14 130.441 422.198 130.139 421.369 129.254C420.935 128.79 420.734 128.172 420.568 127.555L420.235 127.867L419.251 126.816L425.646 120.829L426.687 121.941L424.602 123.893C425.291 124.12 425.81 124.34 426.212 124.77C427.212 125.838 427.163 127.611 425.7 128.981ZM424.968 125.408C424.681 125.101 424.306 124.911 423.77 124.672L421.405 126.887C421.591 127.419 421.823 127.843 422.028 128.062C422.578 128.649 423.644 128.769 424.633 127.842C425.553 126.981 425.501 125.977 424.968 125.408ZM425.468 131.27L430.997 126.639L431.975 127.808L426.777 132.161C426.345 132.523 426.355 132.702 426.732 133.153L426.94 133.402L425.937 134.241L425.213 133.377C424.597 132.641 424.667 131.94 425.468 131.27ZM430.428 139.064C429.491 138.719 428.772 138.284 428.215 137.547C427.152 136.139 427.223 134.341 428.909 133.068L429.091 132.931C430.671 131.738 432.556 132.104 433.518 133.378C434.595 134.805 434.267 136.421 432.792 137.534L432.179 137.997L429.54 134.502C428.661 135.27 428.734 136.103 429.341 136.907C429.732 137.424 430.446 137.832 430.953 138.006L430.428 139.064ZM432.527 134.156C432.093 133.581 431.326 133.303 430.43 133.829L432.188 136.156C432.963 135.571 433.004 134.788 432.527 134.156Z" fill="#2A8AF8"/>
<path d="M284.18 294.312L288.763 287.157L290.107 288.018L285.524 295.172L284.18 294.312ZM281.485 286.886C281.023 287.53 281.159 288.041 281.598 288.355C281.949 288.607 282.501 288.722 283.175 288.792L285.811 285.115L287.049 286.003L283.344 291.172L282.135 290.305L282.547 289.73C281.596 289.697 280.914 289.578 280.377 289.193C279.47 288.543 279.176 287.491 280.043 286.281L282.553 282.78L283.792 283.668L281.485 286.886ZM278.262 280.744C277.798 280.364 277.193 280.287 276.735 280.316L276.828 279.181C277.669 279.064 278.537 279.31 279.27 279.911C280.496 280.915 280.814 282.836 279.597 284.321L279.43 284.525C278.197 286.029 276.193 286.108 274.884 285.036C274.114 284.404 273.751 283.579 273.74 282.873L274.942 282.523C274.978 283.142 275.184 283.591 275.658 283.978C276.382 284.572 277.461 284.448 278.214 283.529L278.381 283.325C279.096 282.452 279.004 281.353 278.262 280.744ZM269.595 280.156L269.213 279.808L270.273 278.647L270.574 278.922C271.017 279.326 271.363 279.463 272.439 279.584L275.148 276.613L276.274 277.64L271.988 282.34L270.889 281.337L271.665 280.486C270.524 280.598 270.073 280.593 269.595 280.156ZM268.519 270.982C269.493 271.205 270.261 271.544 270.907 272.205C272.141 273.466 272.299 275.258 270.789 276.735L270.626 276.894C269.211 278.279 267.295 278.156 266.178 277.015C264.928 275.737 265.048 274.092 266.369 272.8L266.918 272.263L269.981 275.394C270.754 274.52 270.577 273.703 269.872 272.983C269.419 272.519 268.658 272.205 268.133 272.098L268.519 270.982ZM267.062 276.117C267.566 276.631 268.362 276.81 269.183 276.174L267.144 274.09C266.449 274.769 266.509 275.551 267.062 276.117ZM266.745 270.849C266.353 271.185 265.943 271.315 265.486 271.279C265.003 271.251 264.373 271.032 263.512 270.063L262.657 269.12L262.585 269.183C261.865 269.799 261.894 270.406 262.503 271.117C262.854 271.527 263.549 271.896 264.178 272.021L263.784 273.148C262.916 273.038 262.043 272.554 261.411 271.815C260.357 270.585 260.243 269.197 261.792 267.87L264.6 265.466L265.56 266.587L265.022 267.048C265.865 267.258 266.56 267.626 267.005 268.146C267.653 268.902 267.638 270.084 266.745 270.849ZM265.741 269.75C266.087 269.454 266.115 268.988 265.794 268.614C265.49 268.259 264.91 267.95 264.243 267.762L263.46 268.433L264.213 269.258C264.684 269.771 265.021 269.924 265.224 269.94C265.444 269.957 265.631 269.844 265.741 269.75ZM262.443 262.368C262.986 263.087 263.334 264.086 263.162 265.073L261.933 265.218C262.07 264.424 261.811 263.582 261.392 263.026C261.009 262.519 260.504 262.328 260.121 262.617C259.814 262.849 259.846 263.11 260.168 263.815L260.586 264.747C261.049 265.72 260.943 266.477 260.187 267.048C259.248 267.756 257.884 267.522 256.916 266.239C256.359 265.501 256.111 264.576 256.227 263.812L257.467 263.643C257.363 264.262 257.548 265.025 257.96 265.571C258.307 266.031 258.802 266.228 259.166 265.954C259.425 265.759 259.429 265.545 259.115 264.85L258.687 263.925C258.149 262.753 258.401 262.051 259.071 261.545C260.01 260.837 261.395 260.979 262.443 262.368ZM256.426 255.167C257.34 255.57 258.031 256.049 258.54 256.819C259.513 258.291 259.33 260.081 257.568 261.246L257.378 261.371C255.726 262.463 253.868 261.98 252.987 260.649C252.001 259.157 252.43 257.565 253.972 256.546L254.612 256.122L257.028 259.776C257.952 259.064 257.932 258.228 257.376 257.387C257.019 256.847 256.332 256.395 255.837 256.19L256.426 255.167ZM254.025 259.934C254.422 260.535 255.17 260.86 256.097 260.391L254.489 257.959C253.678 258.495 253.588 259.273 254.025 259.934Z" fill="#0554AD"/>
<path d="M434.378 253.43L441.529 258.018L438.399 262.897L437.187 262.119L439.455 258.584L437.758 257.495L435.847 260.475L434.635 259.697L436.546 256.718L434.728 255.551L432.428 259.137L431.216 258.359L434.378 253.43ZM431.022 265.331C431.657 265.805 432.17 265.679 432.493 265.246C432.752 264.9 432.878 264.35 432.96 263.678L429.334 260.972L430.246 259.751L435.343 263.555L434.453 264.747L433.886 264.324C433.835 265.274 433.702 265.954 433.307 266.483C432.64 267.377 431.582 267.651 430.39 266.761L426.937 264.184L427.849 262.963L431.022 265.331ZM424.342 267.019C424.925 266.334 425.825 265.776 426.826 265.73L427.235 266.897C426.429 266.936 425.664 267.373 425.213 267.903C424.801 268.387 424.725 268.921 425.09 269.232C425.383 269.481 425.631 269.393 426.249 268.926L427.068 268.315C427.917 267.651 428.678 267.59 429.4 268.204C430.296 268.966 430.364 270.348 429.322 271.573C428.723 272.277 427.874 272.72 427.103 272.773L426.668 271.599C427.296 271.566 428 271.22 428.443 270.699C428.817 270.26 428.902 269.734 428.555 269.438C428.308 269.228 428.098 269.271 427.488 269.729L426.678 270.347C425.652 271.128 424.912 271.034 424.272 270.49C423.377 269.727 423.214 268.344 424.342 267.019ZM422.533 272.902C421.955 272.343 421.439 272.41 421.063 272.798C420.762 273.108 420.567 273.638 420.391 274.285L423.648 277.442L422.587 278.537L418.02 274.11L419.056 273.042L419.555 273.526C419.727 272.59 419.955 271.942 420.414 271.468C421.191 270.666 422.275 270.53 423.335 271.558L426.437 274.564L425.377 275.658L422.533 272.902ZM418.627 282.274L418.248 282.624L417.182 281.469L417.482 281.192C417.923 280.785 418.089 280.452 418.302 279.391L415.576 276.436L416.696 275.403L421.009 280.077L419.915 281.086L419.134 280.24C419.147 281.387 419.103 281.835 418.627 282.274ZM409.384 282.545C409.692 281.595 410.098 280.86 410.813 280.275C412.178 279.158 413.978 279.159 415.315 280.793L415.459 280.97C416.713 282.502 416.421 284.4 415.186 285.411C413.802 286.543 412.174 286.278 411.004 284.848L410.518 284.253L413.908 281.48C413.105 280.632 412.276 280.737 411.496 281.375C410.995 281.785 410.615 282.515 410.461 283.028L409.384 282.545ZM414.369 284.451C414.927 283.995 415.175 283.218 414.614 282.343L412.357 284.19C412.973 284.942 413.756 284.952 414.369 284.451Z" fill="#0664D0"/>
<circle cx="344.5" cy="199.5" r="81.5" fill="#0664D0"/>
<path d="M210 199.5C210 125.218 270.218 65 344.5 65" stroke="#CEE4FD" stroke-dasharray="2 2"/>
<path d="M333.5 334.057C266.003 328.593 212.587 273.295 210.091 205" stroke="#CEE4FD" stroke-linecap="round"/>
<path d="M357 65C424.497 70.4635 477.913 125.762 480.409 194.057" stroke="#CEE4FD" stroke-linecap="round"/>
<path d="M481 199.5C481 273.782 420.782 334 346.5 334" stroke="#CEE4FD" stroke-dasharray="2 2"/>
<circle cx="344.5" cy="199.5" r="65.25" stroke="#F0F7FF" stroke-width="0.5" stroke-dasharray="2 2"/>
<path d="M323.4 204.3H323.86L327.62 192.84H330.54L325.44 207H321.66L316.58 192.84H319.64L323.4 204.3ZM331.547 203.88C331.547 203.02 331.827 202.36 332.367 201.82C332.927 201.24 333.887 200.68 336.047 200.64L338.167 200.58V200.42C338.167 198.84 337.367 198.22 335.807 198.22C334.907 198.22 333.687 198.7 332.847 199.36L331.847 197.64C332.927 196.66 334.487 196.08 336.107 196.08C338.807 196.08 340.687 197.44 340.687 200.84V207H338.227V205.82C337.047 206.66 335.827 207.14 334.687 207.14C333.027 207.14 331.547 205.84 331.547 203.88ZM334.027 203.8C334.027 204.56 334.587 205.1 335.407 205.1C336.187 205.1 337.207 204.7 338.167 204.06V202.34L336.307 202.4C335.147 202.44 334.587 202.7 334.347 202.94C334.087 203.2 334.027 203.56 334.027 203.8ZM343.497 204.42V192.4H346.037V203.7C346.037 204.64 346.277 204.82 347.257 204.82H347.797V207H345.917C344.317 207 343.497 206.16 343.497 204.42ZM352.322 203C352.322 204.34 353.002 204.88 353.902 204.88C354.622 204.88 355.482 204.5 356.462 203.96V196.4H359.002V207H356.522V205.84C355.202 206.72 354.162 207.2 353.062 207.2C351.202 207.2 349.782 206.06 349.782 203.6V196.4H352.322V203ZM370.871 205.9C369.471 206.8 368.171 207.32 366.631 207.32C363.691 207.32 361.371 205.42 361.371 201.9V201.52C361.371 198.22 363.751 196.08 366.411 196.08C369.391 196.08 371.211 198.14 371.211 201.22V202.5H363.911C364.051 204.44 365.231 205.18 366.911 205.18C367.991 205.18 369.251 204.64 369.991 204.14L370.871 205.9ZM366.451 198.18C365.251 198.18 364.111 198.92 363.911 200.64H368.771C368.771 199.02 367.771 198.18 366.451 198.18Z" fill="white"/>
<circle cx="337" cy="334" r="4" fill="#C4DEFD"/>
<circle cx="357" cy="65" r="4" fill="#C4DEFD"/>
<defs>
<filter id="filter0_dd_2_7783" x="54" y="82" width="256" height="32" filterUnits="userSpaceOnUse" color-interpolation-filters="sRGB">
<feFlood flood-opacity="0" result="BackgroundImageFix"/>
<feColorMatrix in="SourceAlpha" type="matrix" values="0 0 0 0 0 0 0 0 0 0 0 0 0 0 0 0 0 0 127 0" result="hardAlpha"/>
<feOffset dy="2"/>
<feGaussianBlur stdDeviation="2"/>
<feComposite in2="hardAlpha" operator="out"/>
<feColorMatrix type="matrix" values="0 0 0 0 0 0 0 0 0 0 0 0 0 0 0 0 0 0 0.08 0"/>
<feBlend mode="normal" in2="BackgroundImageFix" result="effect1_dropShadow_2_7783"/>
<feColorMatrix in="SourceAlpha" type="matrix" values="0 0 0 0 0 0 0 0 0 0 0 0 0 0 0 0 0 0 127 0" result="hardAlpha"/>
<feOffset dy="1"/>
<feGaussianBlur stdDeviation="1"/>
<feComposite in2="hardAlpha" operator="out"/>
<feColorMatrix type="matrix" values="0 0 0 0 0 0 0 0 0 0 0 0 0 0 0 0 0 0 0.04 0"/>
<feBlend mode="normal" in2="effect1_dropShadow_2_7783" result="effect2_dropShadow_2_7783"/>
<feBlend mode="normal" in="SourceGraphic" in2="effect2_dropShadow_2_7783" result="shape"/>
</filter>
<filter id="filter1_dd_2_7783" x="14" y="122" width="256" height="32" filterUnits="userSpaceOnUse" color-interpolation-filters="sRGB">
<feFlood flood-opacity="0" result="BackgroundImageFix"/>
<feColorMatrix in="SourceAlpha" type="matrix" values="0 0 0 0 0 0 0 0 0 0 0 0 0 0 0 0 0 0 127 0" result="hardAlpha"/>
<feOffset dy="2"/>
<feGaussianBlur stdDeviation="2"/>
<feComposite in2="hardAlpha" operator="out"/>
<feColorMatrix type="matrix" values="0 0 0 0 0 0 0 0 0 0 0 0 0 0 0 0 0 0 0.08 0"/>
<feBlend mode="normal" in2="BackgroundImageFix" result="effect1_dropShadow_2_7783"/>
<feColorMatrix in="SourceAlpha" type="matrix" values="0 0 0 0 0 0 0 0 0 0 0 0 0 0 0 0 0 0 127 0" result="hardAlpha"/>
<feOffset dy="1"/>
<feGaussianBlur stdDeviation="1"/>
<feComposite in2="hardAlpha" operator="out"/>
<feColorMatrix type="matrix" values="0 0 0 0 0 0 0 0 0 0 0 0 0 0 0 0 0 0 0.04 0"/>
<feBlend mode="normal" in2="effect1_dropShadow_2_7783" result="effect2_dropShadow_2_7783"/>
<feBlend mode="normal" in="SourceGraphic" in2="effect2_dropShadow_2_7783" result="shape"/>
</filter>
<filter id="filter2_dd_2_7783" x="81" y="162" width="256" height="32" filterUnits="userSpaceOnUse" color-interpolation-filters="sRGB">
<feFlood flood-opacity="0" result="BackgroundImageFix"/>
<feColorMatrix in="SourceAlpha" type="matrix" values="0 0 0 0 0 0 0 0 0 0 0 0 0 0 0 0 0 0 127 0" result="hardAlpha"/>
<feOffset dy="2"/>
<feGaussianBlur stdDeviation="2"/>
<feComposite in2="hardAlpha" operator="out"/>
<feColorMatrix type="matrix" values="0 0 0 0 0 0 0 0 0 0 0 0 0 0 0 0 0 0 0.08 0"/>
<feBlend mode="normal" in2="BackgroundImageFix" result="effect1_dropShadow_2_7783"/>
<feColorMatrix in="SourceAlpha" type="matrix" values="0 0 0 0 0 0 0 0 0 0 0 0 0 0 0 0 0 0 127 0" result="hardAlpha"/>
<feOffset dy="1"/>
<feGaussianBlur stdDeviation="1"/>
<feComposite in2="hardAlpha" operator="out"/>
<feColorMatrix type="matrix" values="0 0 0 0 0 0 0 0 0 0 0 0 0 0 0 0 0 0 0.04 0"/>
<feBlend mode="normal" in2="effect1_dropShadow_2_7783" result="effect2_dropShadow_2_7783"/>
<feBlend mode="normal" in="SourceGraphic" in2="effect2_dropShadow_2_7783" result="shape"/>
</filter>
<filter id="filter3_dd_2_7783" x="363" y="226" width="256" height="32" filterUnits="userSpaceOnUse" color-interpolation-filters="sRGB">
<feFlood flood-opacity="0" result="BackgroundImageFix"/>
<feColorMatrix in="SourceAlpha" type="matrix" values="0 0 0 0 0 0 0 0 0 0 0 0 0 0 0 0 0 0 127 0" result="hardAlpha"/>
<feOffset dy="2"/>
<feGaussianBlur stdDeviation="2"/>
<feComposite in2="hardAlpha" operator="out"/>
<feColorMatrix type="matrix" values="0 0 0 0 0 0 0 0 0 0 0 0 0 0 0 0 0 0 0.08 0"/>
<feBlend mode="normal" in2="BackgroundImageFix" result="effect1_dropShadow_2_7783"/>
<feColorMatrix in="SourceAlpha" type="matrix" values="0 0 0 0 0 0 0 0 0 0 0 0 0 0 0 0 0 0 127 0" result="hardAlpha"/>
<feOffset dy="1"/>
<feGaussianBlur stdDeviation="1"/>
<feComposite in2="hardAlpha" operator="out"/>
<feColorMatrix type="matrix" values="0 0 0 0 0 0 0 0 0 0 0 0 0 0 0 0 0 0 0.04 0"/>
<feBlend mode="normal" in2="effect1_dropShadow_2_7783" result="effect2_dropShadow_2_7783"/>
<feBlend mode="normal" in="SourceGraphic" in2="effect2_dropShadow_2_7783" result="shape"/>
</filter>
<filter id="filter4_dd_2_7783" x="323" y="275" width="256" height="32" filterUnits="userSpaceOnUse" color-interpolation-filters="sRGB">
<feFlood flood-opacity="0" result="BackgroundImageFix"/>
<feColorMatrix in="SourceAlpha" type="matrix" values="0 0 0 0 0 0 0 0 0 0 0 0 0 0 0 0 0 0 127 0" result="hardAlpha"/>
<feOffset dy="2"/>
<feGaussianBlur stdDeviation="2"/>
<feComposite in2="hardAlpha" operator="out"/>
<feColorMatrix type="matrix" values="0 0 0 0 0 0 0 0 0 0 0 0 0 0 0 0 0 0 0.08 0"/>
<feBlend mode="normal" in2="BackgroundImageFix" result="effect1_dropShadow_2_7783"/>
<feColorMatrix in="SourceAlpha" type="matrix" values="0 0 0 0 0 0 0 0 0 0 0 0 0 0 0 0 0 0 127 0" result="hardAlpha"/>
<feOffset dy="1"/>
<feGaussianBlur stdDeviation="1"/>
<feComposite in2="hardAlpha" operator="out"/>
<feColorMatrix type="matrix" values="0 0 0 0 0 0 0 0 0 0 0 0 0 0 0 0 0 0 0.04 0"/>
<feBlend mode="normal" in2="effect1_dropShadow_2_7783" result="effect2_dropShadow_2_7783"/>
<feBlend mode="normal" in="SourceGraphic" in2="effect2_dropShadow_2_7783" result="shape"/>
</filter>
<filter id="filter5_dd_2_7783" x="155" y="41" width="379" height="321" filterUnits="userSpaceOnUse" color-interpolation-filters="sRGB">
<feFlood flood-opacity="0" result="BackgroundImageFix"/>
<feColorMatrix in="SourceAlpha" type="matrix" values="0 0 0 0 0 0 0 0 0 0 0 0 0 0 0 0 0 0 127 0" result="hardAlpha"/>
<feOffset dy="2"/>
<feGaussianBlur stdDeviation="2"/>
<feComposite in2="hardAlpha" operator="out"/>
<feColorMatrix type="matrix" values="0 0 0 0 0 0 0 0 0 0 0 0 0 0 0 0 0 0 0.08 0"/>
<feBlend mode="normal" in2="BackgroundImageFix" result="effect1_dropShadow_2_7783"/>
<feColorMatrix in="SourceAlpha" type="matrix" values="0 0 0 0 0 0 0 0 0 0 0 0 0 0 0 0 0 0 127 0" result="hardAlpha"/>
<feOffset dy="1"/>
<feGaussianBlur stdDeviation="1"/>
<feComposite in2="hardAlpha" operator="out"/>
<feColorMatrix type="matrix" values="0 0 0 0 0 0 0 0 0 0 0 0 0 0 0 0 0 0 0.04 0"/>
<feBlend mode="normal" in2="effect1_dropShadow_2_7783" result="effect2_dropShadow_2_7783"/>
<feBlend mode="normal" in="SourceGraphic" in2="effect2_dropShadow_2_7783" result="shape"/>
</filter>
<linearGradient id="paint0_linear_2_7783" x1="242.297" y1="148.86" x2="240.808" y2="243.848" gradientUnits="userSpaceOnUse">
<stop stop-color="#0664D0"/>
<stop offset="1" stop-color="#0554AD"/>
</linearGradient>
<linearGradient id="paint1_linear_2_7783" x1="446" y1="240" x2="464.102" y2="234.908" gradientUnits="userSpaceOnUse">
<stop stop-color="#0664D0"/>
<stop offset="1" stop-color="#2A8AF8"/>
</linearGradient>
<linearGradient id="paint2_linear_2_7783" x1="396.695" y1="291.487" x2="373.876" y2="261.791" gradientUnits="userSpaceOnUse">
<stop stop-color="#0664D0"/>
<stop offset="1" stop-color="#0554AD"/>
</linearGradient>
<linearGradient id="paint3_linear_2_7783" x1="302" y1="100.5" x2="368.056" y2="140.521" gradientUnits="userSpaceOnUse">
<stop stop-color="#0664D0"/>
<stop offset="1" stop-color="#2A8AF8"/>
</linearGradient>
</defs>
</svg>
