<svg width="14" height="22" viewBox="0 0 14 22" fill="none" xmlns="http://www.w3.org/2000/svg">
<g clip-path="url(#clip0_53_655)">
<path d="M5 15H9C9 16.105 8.105 17 7 17C5.895 17 5 16.105 5 15ZM13 12V14H1V12C1.947 12 2.714 10.947 2.714 10V9.286C2.714 6.929 4.643 5 7 5C9.357 5 11.286 6.929 11.286 9.286V10C11.286 10.947 12.053 12 13 12ZM12 12.779C10.955 12.296 10.286 11.1 10.286 10V9.286C10.286 7.475 8.812 6 7 6C5.188 6 3.714 7.475 3.714 9.286V10C3.714 11.1 3.045 12.296 2 12.779V13H12V12.779Z" fill="#054A99"/>
</g>
<defs>
<clipPath id="clip0_53_655">
<rect width="14" height="14" fill="white" transform="translate(0 4)"/>
</clipPath>
</defs>
</svg>
