<svg width="12" height="14" viewBox="0 0 12 14" fill="none" xmlns="http://www.w3.org/2000/svg">
<path d="M10 2C8.896 2 8 2.895 8 4C8 4.529 8.209 5.007 8.545 5.364C8.086 5.872 7.264 6.186 5.978 6.585C5.031 6.878 3.928 7.223 3 7.865V3.723C3.595 3.376 4 2.738 4 2C4 0.895 3.104 0 2 0C0.896 0 0 0.895 0 2C0 2.738 0.405 3.376 1 3.723V10.278C0.405 10.624 0 11.262 0 12C0 13.105 0.896 14 2 14C3.104 14 4 13.105 4 12C4 11.392 3.722 10.853 3.294 10.486C3.791 9.425 4.916 9.007 6.57 8.495C8.061 8.033 9.826 7.484 10.601 5.897C11.41 5.642 12 4.894 12 4C12 2.895 11.104 2 10 2ZM2 1C2.552 1 3 1.449 3 2C3 2.551 2.552 3 2 3C1.448 3 1 2.551 1 2C1 1.449 1.448 1 2 1ZM2 13C1.448 13 1 12.551 1 12C1 11.449 1.448 11 2 11C2.552 11 3 11.449 3 12C3 12.551 2.552 13 2 13ZM10 5C9.448 5 9 4.551 9 4C9 3.449 9.448 3 10 3C10.552 3 11 3.449 11 4C11 4.551 10.552 5 10 5Z" fill="#1B1D22"/>
</svg>
