<svg width="14" height="14" viewBox="0 0 14 14" fill="none" xmlns="http://www.w3.org/2000/svg">
<path d="M2.231 9C1.944 9 1.653 9.036 1.359 9.11C1.065 9.183 0.793 9.284 0.544 9.414L0.792 10.008C0.995 9.914 1.214 9.828 1.447 9.752C1.68 9.676 1.926 9.637 2.187 9.637C2.544 9.637 2.803 9.725 2.965 9.9C3.127 10.074 3.207 10.345 3.207 10.712V10.998L2.37 11.029C0.791 11.076 0 11.589 0 12.569C0 13.024 0.138 13.376 0.414 13.625C0.69 13.875 1.071 14 1.557 14C1.929 14 2.237 13.947 2.482 13.839C2.726 13.732 2.971 13.527 3.217 13.225H3.253L3.41 14H4V10.62C4 10.057 3.854 9.646 3.564 9.387C3.274 9.128 2.828 9 2.231 9ZM3.2 11.983C3.2 12.423 3.07 12.763 2.811 13.002C2.551 13.241 2.195 13.361 1.742 13.361C1.457 13.361 1.235 13.293 1.078 13.159C0.921 13.024 0.842 12.83 0.842 12.577C0.842 12.242 0.972 11.998 1.231 11.842C1.49 11.687 1.903 11.599 2.471 11.578L3.2 11.548V11.983ZM7.406 8.955C6.7 8.955 6.176 9.197 5.833 9.683H5.786C5.817 9.349 5.833 9.014 5.833 8.68V7H5V14H5.597C5.615 13.944 5.673 13.649 5.767 13.294H5.832C6.002 13.528 6.221 13.704 6.489 13.822C6.758 13.941 7.063 14 7.406 14C8.063 14 8.576 13.779 8.946 13.34C9.316 12.9 9.5 12.278 9.5 11.473C9.5 10.68 9.319 10.062 8.954 9.619C8.591 9.176 8.074 8.955 7.406 8.955ZM8.305 12.856C8.081 13.178 7.741 13.339 7.285 13.339C6.77 13.339 6.4 13.196 6.173 12.91C5.945 12.624 5.832 12.148 5.832 11.482V11.447C5.832 10.783 5.943 10.313 6.165 10.035C6.387 9.757 6.754 9.618 7.266 9.618C7.732 9.618 8.077 9.771 8.302 10.08C8.526 10.388 8.64 10.849 8.64 11.465C8.641 12.071 8.528 12.535 8.305 12.856ZM12.95 7.535C13.175 7.55 13.401 7.555 13.624 7.596C13.748 7.619 13.855 7.649 13.966 7.677C13.987 7.455 14 7.229 14 7C14 3.134 10.866 0 7 0C3.134 0 0 3.134 0 7C0 7.335 0.032 7.661 0.077 7.983C0.367 7.85 0.671 7.735 0.996 7.654C1.018 7.648 1.041 7.647 1.064 7.641C1.05 7.517 1.02 7.399 1.014 7.272C1.365 7.362 1.732 7.435 2.099 7.508C2.143 7.507 2.187 7.5 2.231 7.5C2.7 7.5 3.122 7.563 3.5 7.681V7C3.5 6.897 3.511 6.797 3.53 6.701C2.665 6.56 1.835 6.38 1.068 6.144C1.244 4.921 1.788 3.819 2.586 2.95C3.166 3.244 3.781 3.493 4.441 3.666C4.259 4.343 4.154 5.071 4.087 5.818C4.341 5.622 4.655 5.5 5 5.5H5.107C5.179 4.935 5.281 4.386 5.425 3.867C5.937 3.947 6.46 4 7 4C7.54 4 8.063 3.947 8.574 3.867C8.836 4.805 8.988 5.83 8.997 6.903C8.453 6.952 7.897 6.981 7.332 6.991C7.332 6.994 7.333 6.997 7.333 7V7.456C7.357 7.455 7.383 7.455 7.407 7.455C8.594 7.455 9.37 7.918 9.859 8.393C9.869 8.385 9.882 8.379 9.892 8.37C9.91 8.186 9.939 8.008 9.95 7.821C11.016 7.698 12.031 7.51 12.986 7.266C12.982 7.358 12.959 7.444 12.95 7.535ZM4.749 2.699C4.279 2.572 3.837 2.4 3.414 2.201C4.006 1.757 4.68 1.422 5.412 1.22C5.157 1.674 4.941 2.175 4.749 2.699ZM7 3C6.57 3 6.152 2.961 5.742 2.901C6.013 2.2 6.35 1.566 6.738 1.023C6.826 1.018 6.911 1 7 1C7.089 1 7.174 1.018 7.262 1.022C7.65 1.566 7.987 2.2 8.258 2.901C7.848 2.961 7.43 3 7 3ZM8.588 1.22C9.32 1.421 9.994 1.757 10.586 2.201C10.163 2.4 9.721 2.572 9.251 2.699C9.059 2.175 8.843 1.674 8.588 1.22ZM9.987 6.786C9.969 5.683 9.819 4.634 9.558 3.666C10.218 3.492 10.833 3.244 11.413 2.95C12.211 3.819 12.755 4.922 12.931 6.144C12.021 6.424 11.036 6.642 9.987 6.786ZM13.354 9.073C13.614 9.121 13.831 9.184 14 9.259V10C13.538 9.848 12.869 9.689 12.544 9.689C11.992 9.689 11.584 9.843 11.322 10.149C11.059 10.454 10.928 10.911 10.928 11.518C10.928 12.101 11.059 12.547 11.322 12.856C11.585 13.164 11.975 13.319 12.49 13.319C12.972 13.319 13.536 13.189 14.001 13V13.741C13.621 13.913 13.061 14 12.498 14C11.711 14 11.096 13.787 10.658 13.361C10.219 12.935 10 12.323 10 11.526C10 10.718 10.222 10.095 10.665 9.656C11.11 9.219 11.742 9 12.564 9C12.83 9 13.093 9.025 13.354 9.073Z" fill="#1B1D22"/>
</svg>
