<svg width="12" height="14" viewBox="0 0 12 14" fill="none" xmlns="http://www.w3.org/2000/svg">
<path d="M11.968 9.461C11.737 8.32 10.266 7.979 8.331 8.588C7.892 8.33 7.461 8.052 7.126 7.807C6.807 7.575 6.494 7.29 6.21 6.974C6.306 6.58 6.38 6.279 6.422 6.134C6.579 5.582 6.745 4.386 6.245 3.813C5.905 3.422 5.373 3.398 4.786 3.81C4.453 4.043 4.249 4.386 4.196 4.8C4.08 5.7 4.709 6.693 5.118 7.229L4.916 8.074C4.758 8.737 4.587 9.456 4.43 10.104C3.581 10.494 1.865 11.438 2.507 13.271C2.778 14.045 3.322 14.017 3.482 13.991C4.314 13.852 4.858 12.401 4.863 12.386C4.939 12.181 5.069 11.701 5.281 10.843C5.663 10.685 6.064 10.539 6.454 10.397C6.918 10.229 7.367 10.065 7.759 9.893C7.919 9.822 8.078 9.758 8.235 9.698C9.225 10.247 10.479 10.82 11.223 10.695C11.563 10.638 11.748 10.457 11.844 10.316C11.995 10.09 12.037 9.804 11.968 9.461ZM3.926 12.022C3.809 12.339 3.591 12.689 3.429 12.873C3.294 12.444 3.325 11.98 4.09 11.455C4 11.794 3.952 11.952 3.926 12.022ZM5.461 5.844C5.457 5.86 5.452 5.876 5.446 5.894C5.252 5.519 5.156 5.18 5.188 4.938C5.205 4.807 5.255 4.72 5.357 4.649C5.433 4.596 5.489 4.566 5.528 4.549C5.601 4.767 5.603 5.344 5.461 5.844ZM6.112 9.437C5.935 9.501 5.756 9.567 5.578 9.633L5.588 9.594L5.584 9.596C5.687 9.169 5.79 8.733 5.889 8.319L5.934 8.128C6.133 8.313 6.339 8.484 6.547 8.634C6.713 8.755 6.898 8.882 7.094 9.01L7.052 9.025L7.114 9.06C6.803 9.187 6.462 9.311 6.112 9.437ZM9.736 9.32C10.347 9.256 10.922 9.334 10.988 9.661C10.99 9.673 10.992 9.684 10.994 9.695C10.769 9.701 10.338 9.585 9.736 9.32ZM1 13C0.448 13 0 12.552 0 12V1C0 0.448 0.448 0 1 0H7.586C7.851 0 8.106 0.105 8.293 0.293L10.707 2.707C10.895 2.895 11 3.149 11 3.414V6H10V3.414L7.586 1H1V6V12V13Z" fill="#1B1D22"/>
</svg>
